<svg xmlns="http://www.w3.org/2000/svg" width="32" height="32" id="cloud">
  <path d="M15.5 20.975v1.755a1.072 1.072 0 0 0-.533.93v5.81c-.022.562.478 1.09 1.033 1.09.555 0 1.055-.528 1.033-1.09v-5.81a1.072 1.072 0 0 0-.533-.928v-1.757zm6.197-19.471c3.457 0 6.23 2.69 6.23 6 0 .592-.09 1.18-.269 1.746a.517.517 0 0 0 .268.605c1.233.566 2.074 1.752 2.074 3.149 0 1.938-1.607 3.502-3.643 3.502h-1.785l.022-.37-.998-.056-.026.426h-2.15a5.48 5.48 0 0 0 .098-1.006c0-3.033-2.477-5.5-5.518-5.5-3.04 0-5.518 2.467-5.518 5.5 0 .342.038.677.098 1.002H8.414l-.025-.52.004-.13.021-.5-1-.041-.02.496-.005.134v.045l.025.516H5.643C3.607 16.502 2 14.938 2 13c0-1.938 1.606-3.498 3.643-3.498h.052a.516.516 0 0 0 .49-.397c.196-.926 1.043-1.602 2.045-1.603.472 0 .928.153 1.295.432.314.238.854-.081.797-.471a3.359 3.359 0 0 1-.035-.461c.002-1.927 1.615-3.495 3.64-3.496.732 0 1.447.212 2.05.607.21.138.523.082.673-.119 1.168-1.558 3.045-2.49 5.047-2.49zm-5.832 5.848-.5.021h-.138l-.715.094-.045.01-.18.04-.488.108.217.977.488-.108.156-.035.674-.088h.072l.5-.02zm1.086.048-.137.996.495.067.074.01.65.15.162.053.475.156.31-.951-.476-.154-.182-.063-.043-.012-.695-.16-.043-.01-.094-.013zm-4.236.563-.444.23-.564.295-.037.022-.307.193-.422.27.536.843.421-.27.288-.18.546-.286.444-.23zm7.31.353-.543.84.42.272.498.322.288.223.396.306.611-.79-.394-.307-.307-.237-.035-.025-.514-.332zm-9.957 1.371-.34.37-.285.306-.029.032-.355.457-.309.394.79.615.306-.394.33-.426.01-.01.275-.297.34-.367zm12.426.602-.793.607.305.399.215.277.008.012.316.498.27.422.843-.537-.27-.422-.324-.51-.025-.037-.24-.312zM16 11.03a4.472 4.472 0 0 1 4.488 4.471A4.472 4.472 0 0 1 16 19.97a4.472 4.472 0 0 1-4.488-4.47A4.472 4.472 0 0 1 16 11.03zM16 12a3.633 3.633 0 0 0-3.625 3.625.52.52 0 0 0 .5.507.52.52 0 0 0 .5-.507A2.617 2.617 0 0 1 16 13a.52.52 0 0 0 .507-.5A.52.52 0 0 0 16 12zm-7.783.244-.194.465-.091.217-.016.04-.22.686-.012.045-.01.043-.11.489.977.218.11-.488.003-.023.2-.623.001-.01.088-.21.196-.46zm15.873.772-.955.298.15.477.06.195.15.688.001.01.059.488.992-.121-.06-.498-.005-.035-.007-.045-.155-.713-.011-.045-.07-.22zM8.676 18.107l-.922.391.193.461.25.592.018.039.166.316.232.442.885-.467-.232-.442-.147-.275-.004-.012-.246-.584zm14.386.698-.236.441-.28.52-.198.308-.272.418.838.547.272-.42.21-.322.022-.037.291-.543.234-.442zm-13.068 1.8-.738.674.338.367.287.315.03.03.423.388.37.338.675-.737-.367-.337-.418-.387h-.006l-.256-.281zm11.516.553-.37.336-.285.258-.457.346-.398.3.604.797.398-.3.475-.36.033-.027.3-.272.372-.336zm-9.393 1.293-.46.883.443.23.236.124.04.019.679.277.463.192.378-.926-.46-.19-.67-.275h-.008l-.197-.103zm7.104.338-.463.186-.26.103-.463.188.373.927.463-.187.26-.104.463-.185z" color="#000" font-family="sans-serif" font-weight="400" overflow="visible" style="text-indent:0;text-align:start;line-height:normal;text-transform:none;block-progression:tb"></path>
</svg>
